<svg xmlns="http://www.w3.org/2000/svg" width="1280" height="760" viewBox="0 0 1280 760" role="img" aria-labelledby="title desc"><title id="title">Benchmark artifact screenshot mockup</title><desc id="desc">Static screenshot-style representation of the repository benchmark and validation artifacts.</desc><style>.bg{fill:#0b1020}.panel{fill:#f8fafc}.bar{fill:#111827}.title{font:700 24px Inter,Arial;fill:#111827}.h{font:700 15px Inter,Arial;fill:#1f2937}.p{font:500 14px Inter,Arial;fill:#475569}.mono{font:600 13px ui-monospace,Menlo,monospace;fill:#334155}.ok{fill:#dcfce7;stroke:#22c55e}.warn{fill:#fef3c7;stroke:#f59e0b}</style><rect width="1280" height="760" rx="30" class="bg"/><rect x="80" y="70" width="1120" height="620" rx="18" class="panel"/><rect x="80" y="70" width="1120" height="54" rx="18" class="bar"/><circle cx="112" cy="97" r="7" fill="#ef4444"/><circle cx="138" cy="97" r="7" fill="#f59e0b"/><circle cx="164" cy="97" r="7" fill="#22c55e"/><text x="104" y="170" class="title">CompText benchmark evidence bundle</text><text x="104" y="205" class="p">Synthetic-only reports for benchmark generation, regression comparison, sanitization, and report-contract validation.</text><rect x="104" y="245" width="500" height="96" rx="14" class="ok"/><text x="132" y="283" class="h">Report contracts</text><text x="132" y="313" class="p">benchmark, regression, sanitization: pass</text><text x="132" y="334" class="mono">docs/reports/report-contract-validation-report.md</text><rect x="676" y="245" width="400" height="96" rx="14" class="warn"/><text x="704" y="283" class="h">Load metrics</text><text x="704" y="313" class="p">Locust optional; null when unavailable</text><text x="704" y="334" class="mono">status: tool_unavailable</text><text x="104" y="400" class="h">Artifact table</text><rect x="104" y="425" width="980" height="1" fill="#cbd5e1"/><text x="104" y="460" class="mono">benchmark-summary.json           machine-readable latest synthetic run</text><text x="104" y="495" class="mono">regression-summary.json          baseline/latest comparison contract</text><text x="104" y="530" class="mono">sanitization-summary.json        artifact safety evidence</text><text x="104" y="565" class="mono">benchmark-report-*.md            human-readable run notes</text><text x="104" y="630" class="p">Reviewer note: this screenshot is static documentation artwork, not a production dashboard capture.</text></svg>
